<svg width="24" height="19" viewBox="0 0 24 19" fill="none" xmlns="http://www.w3.org/2000/svg">
<path d="M2.22222 2.21429L9.68711 7.8149L9.6896 7.81695C10.5185 8.42085 10.9332 8.72297 11.3874 8.83969C11.7888 8.94285 12.2108 8.94285 12.6123 8.83969C13.0669 8.72287 13.4828 8.41986 14.3132 7.8149C14.3132 7.8149 19.1012 4.16436 21.7778 2.21429M1 14.1145V4.88595C1 3.52582 1 2.84525 1.26643 2.32575C1.50079 1.86879 1.87447 1.49753 2.33442 1.2647C2.85731 1 3.54233 1 4.91135 1H19.0891C20.4581 1 21.1417 1 21.6646 1.2647C22.1245 1.49753 22.4995 1.86879 22.7338 2.32575C23 2.84475 23 3.52449 23 4.88196V14.1186C23 15.4761 23 16.1549 22.7338 16.6739C22.4995 17.1308 22.1245 17.5027 21.6646 17.7356C21.1422 18 20.459 18 19.0927 18H4.90733C3.54099 18 2.8568 18 2.33442 17.7356C1.87447 17.5027 1.50079 17.1308 1.26643 16.6739C1 16.1544 1 15.4747 1 14.1145Z" stroke="black" stroke-width="2" stroke-linecap="round" stroke-linejoin="round"/>
</svg>
